# Blender v2.93.4 OBJ File: 'door.blend'
# www.blender.org
mtllib supMidV_1x2.mtl
o supMidV1x2_Cube.036
v 0.186434 4.000000 1.000000
v 0.186434 4.000000 0.000000
v 1.000000 4.000000 0.186434
v 1.000000 4.000000 0.813566
v 1.000000 2.000000 0.000000
v 1.000000 2.000000 1.000000
v 0.000000 2.000000 1.000000
v 0.000000 2.000000 0.000000
v 0.813566 4.000000 0.000000
v 0.813566 4.000000 1.000000
v 1.000000 2.000000 0.813566
v 0.000000 4.000000 0.186434
v 1.000000 4.000000 0.000000
v 1.000000 4.000000 1.000000
v 0.000000 4.000000 0.813566
v 0.813566 2.000000 0.000000
v 0.186434 2.000000 1.000000
v 0.813566 2.000000 1.000000
v 0.186434 2.000000 0.000000
v 0.000000 4.000000 1.000000
v 0.000000 4.000000 0.000000
v 0.000000 2.000000 0.813566
v 0.000000 2.000000 0.186434
v 0.186434 2.000000 0.186434
v 0.813566 2.000000 0.186434
v 0.813566 2.000000 0.813566
v 0.186434 2.000000 0.813566
v 0.186434 4.000000 0.186434
v 0.813566 4.000000 0.186434
v 0.813566 4.000000 0.813566
v 0.186434 4.000000 0.813566
v 0.186434 2.000000 0.813566
v 0.186434 2.000000 0.186434
v 0.186434 4.000000 0.813566
v 0.186434 4.000000 0.186434
v 1.000000 2.000000 0.813566
v 1.000000 2.000000 0.186434
v 0.813572 2.000000 0.186434
v 0.500000 2.734445 0.813566
v 0.398376 2.754659 0.813566
v 0.601624 2.754659 0.813566
v 0.687776 3.187776 0.813566
v 0.765555 3.000000 0.813566
v 0.745341 3.101624 0.813566
v 0.687776 2.812224 0.813566
v 0.745341 2.898376 0.813566
v 0.601624 3.245341 0.813566
v 0.234445 3.000000 0.813566
v 0.254659 3.101624 0.813566
v 0.254659 2.898376 0.813566
v 0.500000 3.265556 0.813566
v 0.398376 3.245341 0.813566
v 0.312224 2.812224 0.813566
v 0.312224 3.187776 0.813566
v 0.234445 3.000000 0.186434
v 0.312224 2.812224 0.186434
v 0.254659 2.898376 0.186434
v 0.254659 3.101624 0.186434
v 0.312224 3.187776 0.186434
v 0.398376 3.245341 0.186434
v 0.500000 2.734445 0.186434
v 0.601624 2.754659 0.186434
v 0.398376 2.754659 0.186434
v 0.500000 3.265555 0.186434
v 0.601624 3.245341 0.186434
v 0.765555 3.000000 0.186434
v 0.745341 2.898376 0.186434
v 0.745341 3.101624 0.186434
v 0.687776 3.187776 0.186434
v 0.687776 2.812224 0.186434
v 0.186434 2.000000 1.000000
v 0.186434 2.000000 0.000000
v 1.000000 2.000000 0.186434
v 1.000000 2.000000 0.813566
v 1.000000 0.000000 0.000000
v 1.000000 0.000000 1.000000
v 0.000000 0.000000 1.000000
v 0.000000 0.000000 0.000000
v 0.813566 2.000000 0.000000
v 0.813566 2.000000 1.000000
v 1.000000 0.000000 0.813566
v 0.000000 2.000000 0.186434
v 1.000000 2.000000 0.000000
v 1.000000 2.000000 1.000000
v 0.000000 2.000000 0.813566
v 0.813566 0.000000 0.000000
v 0.186434 0.000000 1.000000
v 0.813566 0.000000 1.000000
v 0.186434 0.000000 0.000000
v 0.000000 2.000000 1.000000
v 0.000000 2.000000 0.000000
v 0.000000 0.000000 0.813566
v 0.000000 0.000000 0.186434
v 0.186434 0.000000 0.186434
v 0.813566 0.000000 0.186434
v 0.813566 0.000000 0.813566
v 0.186434 0.000000 0.813566
v 0.186434 2.000000 0.186434
v 0.813566 2.000000 0.186434
v 0.813566 2.000000 0.813566
v 0.186434 2.000000 0.813566
v 0.186434 0.000000 0.813566
v 0.186434 0.000000 0.186434
v 0.186434 2.000000 0.813566
v 0.186434 2.000000 0.186434
v 1.000000 0.000000 0.813566
v 1.000000 0.000000 0.186434
v 0.813572 0.000000 0.186434
v 0.500000 0.734445 0.813566
v 0.398376 0.754659 0.813566
v 0.601624 0.754659 0.813566
v 0.687776 1.187776 0.813566
v 0.765555 1.000000 0.813566
v 0.745341 1.101624 0.813566
v 0.687776 0.812224 0.813566
v 0.745341 0.898376 0.813566
v 0.601624 1.245341 0.813566
v 0.234445 1.000000 0.813566
v 0.254659 1.101624 0.813566
v 0.254659 0.898376 0.813566
v 0.500000 1.265556 0.813566
v 0.398376 1.245341 0.813566
v 0.312224 0.812224 0.813566
v 0.312224 1.187776 0.813566
v 0.234445 1.000000 0.186434
v 0.312224 0.812224 0.186434
v 0.254659 0.898376 0.186434
v 0.254659 1.101624 0.186434
v 0.312224 1.187776 0.186434
v 0.398376 1.245341 0.186434
v 0.500000 0.734445 0.186434
v 0.601624 0.754659 0.186434
v 0.398376 0.754659 0.186434
v 0.500000 1.265555 0.186434
v 0.601624 1.245341 0.186434
v 0.765555 1.000000 0.186434
v 0.745341 0.898376 0.186434
v 0.745341 1.101624 0.186434
v 0.687776 1.187776 0.186434
v 0.687776 0.812224 0.186434
vt 0.633956 0.582681
vt 0.633956 0.990640
vt 0.595927 0.990640
vt 0.595927 0.582681
vt 0.804200 0.563961
vt 0.766171 0.563961
vt 0.766171 0.156002
vt 0.804200 0.156002
vt 0.804200 0.562826
vt 0.879667 0.563961
vt 0.879667 0.156002
vt 0.917696 0.156002
vt 0.917696 0.563961
vt 0.633956 0.156002
vt 0.633956 0.562826
vt 0.595927 0.563961
vt 0.595927 0.156002
vt 0.766171 0.989505
vt 0.766171 0.582681
vt 0.804200 0.582681
vt 0.804200 0.990640
vt 0.766171 0.990640
vt 0.709423 0.563961
vt 0.709423 0.156002
vt 0.747452 0.156002
vt 0.747452 0.563961
vt 0.709423 0.990640
vt 0.709423 0.582681
vt 0.747452 0.582681
vt 0.747452 0.990640
vt 0.936415 0.563961
vt 0.936415 0.156002
vt 0.974444 0.156002
vt 0.974444 0.563961
vt 0.822919 0.563961
vt 0.822919 0.156002
vt 0.860948 0.156002
vt 0.860948 0.563961
vt 0.652675 0.990640
vt 0.652675 0.582681
vt 0.690704 0.582681
vt 0.690704 0.990640
vt 0.652675 0.563961
vt 0.652675 0.156002
vt 0.690704 0.156002
vt 0.690704 0.563961
vt 0.309937 0.094051
vt 0.156004 0.137282
vt 0.156002 0.009361
vt 0.309937 0.052592
vt 0.305814 0.073321
vt 0.563962 0.009360
vt 0.563962 0.137283
vt 0.321679 0.111624
vt 0.339252 0.123366
vt 0.359982 0.127489
vt 0.380711 0.123366
vt 0.398285 0.111624
vt 0.410027 0.094051
vt 0.414150 0.073321
vt 0.410027 0.052592
vt 0.398284 0.035019
vt 0.380711 0.023277
vt 0.359982 0.019154
vt 0.339253 0.023277
vt 0.321679 0.035019
vt 0.094051 0.163293
vt 0.137283 0.009360
vt 0.137283 0.417319
vt 0.009360 0.417319
vt 0.009363 0.009361
vt 0.052593 0.163293
vt 0.035020 0.175035
vt 0.023278 0.192608
vt 0.019154 0.213338
vt 0.023277 0.234066
vt 0.035019 0.251640
vt 0.052593 0.263383
vt 0.073322 0.267506
vt 0.094051 0.263383
vt 0.111624 0.251641
vt 0.123367 0.234067
vt 0.127490 0.213338
vt 0.123367 0.192609
vt 0.111625 0.175036
vt 0.073322 0.159170
vt 0.009360 0.843998
vt 0.009360 0.436039
vt 0.047388 0.436039
vt 0.047388 0.843998
vt 0.822919 0.990640
vt 0.822919 0.582681
vt 0.860948 0.582681
vt 0.860948 0.990640
vt 0.917696 0.582681
vt 0.917696 0.990640
vt 0.879667 0.990640
vt 0.879667 0.582681
vt 0.283925 0.563961
vt 0.156003 0.563961
vt 0.156002 0.156002
vt 0.283925 0.156002
vt 0.430566 0.563961
vt 0.302644 0.563961
vt 0.302644 0.156002
vt 0.430566 0.156002
vt 0.104136 0.436039
vt 0.104136 0.843998
vt 0.066108 0.843998
vt 0.066108 0.436039
vt 0.157088 0.582680
vt 0.546090 0.582680
vt 0.546090 0.619043
vt 0.156062 0.625850
vt 0.156002 0.619042
vt 0.577208 0.494166
vt 0.449285 0.494166
vt 0.449285 0.473031
vt 0.577208 0.473031
vt 0.449285 0.451896
vt 0.577207 0.451896
vt 0.449285 0.430760
vt 0.577208 0.430760
vt 0.449285 0.409625
vt 0.577207 0.409625
vt 0.449285 0.388490
vt 0.577207 0.388490
vt 0.449285 0.367355
vt 0.577207 0.367354
vt 0.449285 0.346219
vt 0.577207 0.346219
vt 0.449285 0.325084
vt 0.577207 0.325084
vt 0.449285 0.303949
vt 0.577207 0.303949
vt 0.449285 0.282814
vt 0.577207 0.282814
vt 0.449285 0.261678
vt 0.577207 0.261678
vt 0.449285 0.240543
vt 0.577207 0.240543
vt 0.449285 0.219408
vt 0.577207 0.219408
vt 0.449285 0.198272
vt 0.577207 0.198273
vt 0.449285 0.177137
vt 0.577208 0.177137
vt 0.449285 0.156002
vt 0.577208 0.156002
vt 0.633956 0.582681
vt 0.633956 0.990640
vt 0.595927 0.990640
vt 0.595927 0.582681
vt 0.804200 0.563961
vt 0.766171 0.563961
vt 0.766171 0.156002
vt 0.804200 0.156002
vt 0.804200 0.562826
vt 0.879667 0.563961
vt 0.879667 0.156002
vt 0.917696 0.156002
vt 0.917696 0.563961
vt 0.633956 0.156002
vt 0.633956 0.562826
vt 0.595927 0.563961
vt 0.595927 0.156002
vt 0.766171 0.989505
vt 0.766171 0.582681
vt 0.804200 0.582681
vt 0.804200 0.990640
vt 0.766171 0.990640
vt 0.709423 0.563961
vt 0.709423 0.156002
vt 0.747452 0.156002
vt 0.747452 0.563961
vt 0.709423 0.990640
vt 0.709423 0.582681
vt 0.747452 0.582681
vt 0.747452 0.990640
vt 0.936415 0.563961
vt 0.936415 0.156002
vt 0.974444 0.156002
vt 0.974444 0.563961
vt 0.822919 0.563961
vt 0.822919 0.156002
vt 0.860948 0.156002
vt 0.860948 0.563961
vt 0.652675 0.990640
vt 0.652675 0.582681
vt 0.690704 0.582681
vt 0.690704 0.990640
vt 0.652675 0.563961
vt 0.652675 0.156002
vt 0.690704 0.156002
vt 0.690704 0.563961
vt 0.309937 0.094051
vt 0.156004 0.137282
vt 0.156002 0.009361
vt 0.309937 0.052592
vt 0.305814 0.073321
vt 0.563962 0.009360
vt 0.563962 0.137283
vt 0.321679 0.111624
vt 0.339252 0.123366
vt 0.359982 0.127489
vt 0.380711 0.123366
vt 0.398285 0.111624
vt 0.410027 0.094051
vt 0.414150 0.073321
vt 0.410027 0.052592
vt 0.398284 0.035019
vt 0.380711 0.023277
vt 0.359982 0.019154
vt 0.339253 0.023277
vt 0.321679 0.035019
vt 0.094051 0.163293
vt 0.137283 0.009360
vt 0.137283 0.417319
vt 0.009360 0.417319
vt 0.009363 0.009361
vt 0.052593 0.163293
vt 0.035020 0.175035
vt 0.023278 0.192608
vt 0.019154 0.213338
vt 0.023277 0.234066
vt 0.035019 0.251640
vt 0.052593 0.263383
vt 0.073322 0.267506
vt 0.094051 0.263383
vt 0.111624 0.251641
vt 0.123367 0.234067
vt 0.127490 0.213338
vt 0.123367 0.192609
vt 0.111625 0.175036
vt 0.073322 0.159170
vt 0.009360 0.843998
vt 0.009360 0.436039
vt 0.047388 0.436039
vt 0.047388 0.843998
vt 0.822919 0.990640
vt 0.822919 0.582681
vt 0.860948 0.582681
vt 0.860948 0.990640
vt 0.917696 0.582681
vt 0.917696 0.990640
vt 0.879667 0.990640
vt 0.879667 0.582681
vt 0.283925 0.563961
vt 0.156003 0.563961
vt 0.156002 0.156002
vt 0.283925 0.156002
vt 0.430566 0.563961
vt 0.302644 0.563961
vt 0.302644 0.156002
vt 0.430566 0.156002
vt 0.104136 0.436039
vt 0.104136 0.843998
vt 0.066108 0.843998
vt 0.066108 0.436039
vt 0.157088 0.582680
vt 0.546090 0.582680
vt 0.546090 0.619043
vt 0.156062 0.625850
vt 0.156002 0.619042
vt 0.577208 0.494166
vt 0.449285 0.494166
vt 0.449285 0.473031
vt 0.577208 0.473031
vt 0.449285 0.451896
vt 0.577207 0.451896
vt 0.449285 0.430760
vt 0.577208 0.430760
vt 0.449285 0.409625
vt 0.577207 0.409625
vt 0.449285 0.388490
vt 0.577207 0.388490
vt 0.449285 0.367355
vt 0.577207 0.367354
vt 0.449285 0.346219
vt 0.577207 0.346219
vt 0.449285 0.325084
vt 0.577207 0.325084
vt 0.449285 0.303949
vt 0.577207 0.303949
vt 0.449285 0.282814
vt 0.577207 0.282814
vt 0.449285 0.261678
vt 0.577207 0.261678
vt 0.449285 0.240543
vt 0.577207 0.240543
vt 0.449285 0.219408
vt 0.577207 0.219408
vt 0.449285 0.198272
vt 0.577207 0.198273
vt 0.449285 0.177137
vt 0.577208 0.177137
vt 0.449285 0.156002
vt 0.577208 0.156002
vn 0.0000 0.0000 -1.0000
vn -1.0000 0.0000 0.0000
vn 1.0000 0.0000 0.0000
vn 0.0000 0.0000 1.0000
vn -0.1951 0.9808 0.0000
vn -0.5556 0.8315 0.0000
vn -0.8315 0.5556 0.0000
vn -0.9808 0.1951 0.0000
vn -0.9808 -0.1951 0.0000
vn -0.8315 -0.5556 0.0000
vn -0.5556 -0.8315 0.0000
vn -0.1951 -0.9808 0.0000
vn 0.1951 -0.9808 0.0000
vn 0.5556 -0.8315 0.0000
vn 0.8315 -0.5556 0.0000
vn 0.9808 -0.1951 0.0000
vn 0.9808 0.1951 0.0000
vn 0.8315 0.5556 0.0000
vn 0.5556 0.8315 0.0000
vn 0.1951 0.9808 0.0000
usemtl None
s off
f 22/1/1 15/2/1 34/3/1 32/4/1
f 11/5/1 26/6/1 30/7/1 4/8/1 36/9/1
f 9/10/2 16/11/2 25/12/2 29/13/2
f 3/14/3 37/15/3 5/16/3 13/17/3
f 36/18/3 4/19/3 14/20/3 6/21/3
f 11/22/4 36/18/4 6/21/4
f 16/23/1 9/24/1 13/25/1 5/26/1
f 17/27/4 1/28/4 20/29/4 7/30/4
f 10/31/4 18/32/4 6/33/4 14/34/4
f 2/35/1 19/36/1 8/37/1 21/38/1
f 15/39/2 22/40/2 7/41/2 20/42/2
f 23/43/2 12/44/2 21/45/2 8/46/2
f 40/47/4 27/48/4 26/49/4 41/50/4 39/51/4
f 41/50/4 26/49/4 30/52/4 31/53/4 27/48/4 40/47/4 53/54/4 50/55/4 48/56/4 49/57/4 54/58/4 52/59/4 51/60/4 47/61/4 42/62/4 44/63/4 43/64/4 46/65/4 45/66/4
f 63/67/1 24/68/1 28/69/1 29/70/1 25/71/1 62/72/1 70/73/1 67/74/1 66/75/1 68/76/1 69/77/1 65/78/1 64/79/1 60/80/1 59/81/1 58/82/1 55/83/1 57/84/1 56/85/1
f 25/71/1 24/68/1 63/67/1 61/86/1 62/72/1
f 19/87/3 2/88/3 28/89/3 24/90/3
f 1/91/3 17/92/3 27/93/3 31/94/3
f 18/95/2 10/96/2 30/97/2 26/98/2
f 26/99/3 25/100/3 29/101/3 30/102/3
f 33/103/2 32/104/2 34/105/2 35/106/2
f 12/107/4 23/108/4 33/109/4 35/110/4
f 37/111/4 3/112/4 29/113/4 25/114/4 38/115/4
f 61/116/5 39/117/5 41/118/5 62/119/5
f 62/119/6 41/118/6 45/120/6 70/121/6
f 46/122/7 67/123/7 70/121/7 45/120/7
f 43/124/8 66/125/8 67/123/8 46/122/8
f 44/126/9 68/127/9 66/125/9 43/124/9
f 42/128/10 69/129/10 68/127/10 44/126/10
f 42/128/11 47/130/11 65/131/11 69/129/11
f 47/130/12 51/132/12 64/133/12 65/131/12
f 51/132/13 52/134/13 60/135/13 64/133/13
f 52/134/14 54/136/14 59/137/14 60/135/14
f 54/136/15 49/138/15 58/139/15 59/137/15
f 49/138/16 48/140/16 55/141/16 58/139/16
f 48/140/17 50/142/17 57/143/17 55/141/17
f 50/142/18 53/144/18 56/145/18 57/143/18
f 56/145/19 53/144/19 40/146/19 63/147/19
f 63/147/20 40/146/20 39/148/20 61/149/20
f 92/150/1 85/151/1 104/152/1 102/153/1
f 81/154/1 96/155/1 100/156/1 74/157/1 106/158/1
f 79/159/2 86/160/2 95/161/2 99/162/2
f 73/163/3 107/164/3 75/165/3 83/166/3
f 106/167/3 74/168/3 84/169/3 76/170/3
f 81/171/4 106/167/4 76/170/4
f 86/172/1 79/173/1 83/174/1 75/175/1
f 87/176/4 71/177/4 90/178/4 77/179/4
f 80/180/4 88/181/4 76/182/4 84/183/4
f 72/184/1 89/185/1 78/186/1 91/187/1
f 85/188/2 92/189/2 77/190/2 90/191/2
f 93/192/2 82/193/2 91/194/2 78/195/2
f 110/196/4 97/197/4 96/198/4 111/199/4 109/200/4
f 111/199/4 96/198/4 100/201/4 101/202/4 97/197/4 110/196/4 123/203/4 120/204/4 118/205/4 119/206/4 124/207/4 122/208/4 121/209/4 117/210/4 112/211/4 114/212/4 113/213/4 116/214/4 115/215/4
f 133/216/1 94/217/1 98/218/1 99/219/1 95/220/1 132/221/1 140/222/1 137/223/1 136/224/1 138/225/1 139/226/1 135/227/1 134/228/1 130/229/1 129/230/1 128/231/1 125/232/1 127/233/1 126/234/1
f 95/220/1 94/217/1 133/216/1 131/235/1 132/221/1
f 89/236/3 72/237/3 98/238/3 94/239/3
f 71/240/3 87/241/3 97/242/3 101/243/3
f 88/244/2 80/245/2 100/246/2 96/247/2
f 96/248/3 95/249/3 99/250/3 100/251/3
f 103/252/2 102/253/2 104/254/2 105/255/2
f 82/256/4 93/257/4 103/258/4 105/259/4
f 107/260/4 73/261/4 99/262/4 95/263/4 108/264/4
f 131/265/5 109/266/5 111/267/5 132/268/5
f 132/268/6 111/267/6 115/269/6 140/270/6
f 116/271/7 137/272/7 140/270/7 115/269/7
f 113/273/8 136/274/8 137/272/8 116/271/8
f 114/275/9 138/276/9 136/274/9 113/273/9
f 112/277/10 139/278/10 138/276/10 114/275/10
f 112/277/11 117/279/11 135/280/11 139/278/11
f 117/279/12 121/281/12 134/282/12 135/280/12
f 121/281/13 122/283/13 130/284/13 134/282/13
f 122/283/14 124/285/14 129/286/14 130/284/14
f 124/285/15 119/287/15 128/288/15 129/286/15
f 119/287/16 118/289/16 125/290/16 128/288/16
f 118/289/17 120/291/17 127/292/17 125/290/17
f 120/291/18 123/293/18 126/294/18 127/292/18
f 126/294/19 123/293/19 110/295/19 133/296/19
f 133/296/20 110/295/20 109/297/20 131/298/20
