# Blender v2.93.4 OBJ File: 'door.blend'
# www.blender.org
mtllib tilePathCenter.mtl
o tilePathCenter_Cube.020
v -0.000000 -1.000000 0.000000
v -0.000000 0.000000 0.000000
v 4.000000 -1.000000 -0.000000
v 4.000000 0.000000 -0.000000
v 0.000000 -1.000000 4.000000
v 0.000000 0.000000 4.000000
v 4.000000 -1.000000 4.000000
v 4.000000 0.000000 4.000000
v 0.200000 -0.000000 0.000000
v 3.800000 -0.000000 0.000000
v 0.200000 -0.000000 4.000000
v 3.800000 -0.000000 4.000000
v 0.200000 0.100000 0.000000
v 3.800000 0.100000 0.000000
v 0.200000 0.100000 4.000000
v 3.800000 0.100000 4.000000
v 3.800000 -0.000000 3.800000
v 0.200000 -0.000000 3.800000
v 3.800000 0.100000 3.800000
v 0.200000 0.100000 3.800000
v 3.800000 -0.000000 0.199999
v 3.800000 0.100000 0.199999
v 0.200000 -0.000000 0.200000
v 0.200000 0.100000 0.200000
v 4.000001 0.100000 3.800000
v 4.000001 -0.000000 3.800000
v 4.000001 -0.000000 0.199999
v 4.000001 0.100000 0.199999
v 0.000000 -0.000000 0.200000
v 0.000000 -0.000000 3.800000
v 0.000000 0.100000 0.200000
v 0.000000 0.100000 3.800000
vt 0.375000 0.000000
vt 0.625000 0.000000
vt 0.625000 0.250000
vt 0.375000 0.250000
vt 0.625000 0.500000
vt 0.375000 0.500000
vt 0.625000 0.750000
vt 0.375000 0.750000
vt 0.625000 1.000000
vt 0.375000 1.000000
vt 0.125000 0.500000
vt 0.125000 0.750000
vt 0.875000 0.500000
vt 0.875000 0.750000
vt 0.375000 0.500000
vt 0.574289 0.500000
vt 0.574289 0.750000
vt 0.375000 0.750000
vt 0.375000 0.000000
vt 0.574289 0.000000
vt 0.574289 0.250000
vt 0.375000 0.250000
vt 0.250000 0.500000
vt 0.250000 0.750000
vt 0.375000 0.375000
vt 0.574289 0.375000
vt 0.574289 0.875000
vt 0.375000 0.937500
vt 0.574289 0.937500
vt 0.574289 1.000000
vt 0.375000 1.000000
vt 0.375000 0.875000
vt 0.574289 0.312500
vt 0.375000 0.312500
vt 0.574289 0.312500
vt 0.375000 0.312500
vt 0.187500 0.500000
vt 0.187500 0.750000
vt 0.125000 0.500000
vt 0.125000 0.750000
vt 0.574289 0.875000
vt 0.375000 0.875000
vt 0.574289 0.375000
vt 0.375000 0.375000
vt 0.187500 0.500000
vt 0.250000 0.500000
vt 0.574289 0.937500
vt 0.375000 0.937500
vt 0.250000 0.750000
vt 0.187500 0.750000
vn -0.0000 0.0000 -1.0000
vn 1.0000 0.0000 -0.0000
vn 0.0000 0.0000 1.0000
vn -1.0000 0.0000 0.0000
vn 0.0000 -1.0000 -0.0000
vn 0.0000 1.0000 0.0000
usemtl None
s off
f 1/1/1 2/2/1 4/3/1 3/4/1
f 3/4/2 4/3/2 8/5/2 7/6/2
f 7/6/3 8/5/3 6/7/3 5/8/3
f 5/8/4 6/7/4 2/9/4 1/10/4
f 3/11/5 7/6/5 5/8/5 1/12/5
f 8/5/6 4/13/6 2/14/6 6/7/6
f 12/15/3 16/16/3 15/17/3 11/18/3
f 9/19/1 13/20/1 14/21/1 10/22/1
f 17/23/5 12/15/5 11/18/5 18/24/5
f 17/25/2 19/26/2 16/16/2 12/15/2
f 19/26/6 20/27/6 15/17/6 16/16/6
f 23/28/4 24/29/4 13/30/4 9/31/4
f 11/18/4 15/17/4 20/27/4 18/32/4
f 22/33/6 24/29/6 20/27/6 19/26/6
f 21/34/1 22/33/1 28/35/1 27/36/1
f 21/37/5 17/23/5 18/24/5 23/38/5
f 10/39/5 21/37/5 23/38/5 9/40/5
f 10/22/2 14/21/2 22/33/2 21/34/2
f 14/21/6 13/30/6 24/29/6 22/33/6
f 18/32/3 20/27/3 32/41/3 30/42/3
f 27/36/2 28/35/2 25/43/2 26/44/2
f 22/33/6 19/26/6 25/43/6 28/35/6
f 17/23/5 21/37/5 27/45/5 26/46/5
f 19/26/3 17/25/3 26/44/3 25/43/3
f 30/42/4 32/41/4 31/47/4 29/48/4
f 24/29/1 23/28/1 29/48/1 31/47/1
f 20/27/6 24/29/6 31/47/6 32/41/6
f 23/38/5 18/24/5 30/49/5 29/50/5
